<svg xmlns="http://www.w3.org/2000/svg" viewBox="0 0 500 500">
<path d="M 243 456 C 20 350 25 240 80 200" fill="none" stroke="#1f4027" stroke-width="2.2" stroke-linecap="round" stroke-linejoin="round"/>
<path d="M 257 456 C 480 350 475 240 420 200" fill="none" stroke="#1f4027" stroke-width="2.2" stroke-linecap="round" stroke-linejoin="round"/>
<path d="M 212.31 438.24 Q 215.44 433.74 218.42 426.80 Q 217.52 418.64 215.17 411.67 Q 211.16 417.96 208.48 425.73 Q 210.69 433.23 212.31 438.24 Z" fill="#27502f" stroke="#0f2815" stroke-width="0.60" stroke-opacity="0.85" stroke-linejoin="round"/>
<path d="M 450.89 284.67 Q 456.39 286.89 464.32 288.10 Q 472.38 284.70 478.85 280.29 Q 471.38 278.31 462.70 277.78 Q 455.45 280.89 450.89 284.67 Z" fill="#27502f" stroke="#0f2815" stroke-width="0.60" stroke-opacity="0.85" stroke-linejoin="round"/>
<path d="M 443.21 296.14 Q 440.64 291.12 436.75 283.65 Q 428.60 280.16 420.89 278.42 Q 424.30 285.59 429.56 292.71 Q 437.36 295.26 443.21 296.14 Z" fill="#27502f" stroke="#0f2815" stroke-width="0.60" stroke-opacity="0.85" stroke-linejoin="round"/>
<path d="M 139.36 393.42 Q 143.54 389.62 147.96 383.32 Q 149.04 375.04 147.95 367.48 Q 142.95 373.02 138.60 380.21 Q 138.81 388.05 139.36 393.42 Z" fill="#27502f" stroke="#0f2815" stroke-width="0.60" stroke-opacity="0.85" stroke-linejoin="round"/>
<path d="M 395.33 364.54 Q 395.47 358.97 394.72 351.05 Q 389.25 344.43 383.54 339.46 Q 383.69 347.05 385.55 355.36 Q 390.48 361.31 395.33 364.54 Z" fill="#27502f" stroke="#0f2815" stroke-width="0.60" stroke-opacity="0.85" stroke-linejoin="round"/>
<path d="M 454.00 260.58 Q 459.68 261.11 467.49 260.23 Q 474.67 255.72 479.70 249.70 Q 472.02 249.45 463.57 250.98 Q 457.69 256.42 454.00 260.58 Z" fill="#27502f" stroke="#0f2815" stroke-width="0.60" stroke-opacity="0.85" stroke-linejoin="round"/>
<path d="M 66.77 214.66 Q 69.78 218.01 74.65 222.06 Q 81.52 222.55 87.52 222.19 Q 83.27 217.74 77.42 214.44 Q 71.26 213.92 66.77 214.66 Z" fill="#27502f" stroke="#0f2815" stroke-width="0.60" stroke-opacity="0.85" stroke-linejoin="round"/>
<path d="M 49.07 285.17 Q 44.30 281.73 36.94 278.57 Q 28.34 279.26 20.91 282.30 Q 27.57 286.77 35.82 289.61 Q 43.70 287.63 49.07 285.17 Z" fill="#27502f" stroke="#0f2815" stroke-width="0.60" stroke-opacity="0.85" stroke-linejoin="round"/>
<path d="M 397.82 367.14 Q 401.21 371.58 406.88 377.05 Q 415.07 379.22 422.75 379.26 Q 418.02 373.13 411.40 367.74 Q 403.56 366.75 397.82 367.14 Z" fill="#27502f" stroke="#0f2815" stroke-width="0.60" stroke-opacity="0.85" stroke-linejoin="round"/>
<path d="M 76.39 337.63 Q 70.70 336.38 62.66 336.12 Q 55.24 340.63 49.58 346.06 Q 57.32 347.23 65.86 346.30 Q 72.43 341.88 76.39 337.63 Z" fill="#27502f" stroke="#0f2815" stroke-width="0.60" stroke-opacity="0.85" stroke-linejoin="round"/>
<path d="M 56.58 231.39 Q 61.10 234.92 68.19 237.70 Q 76.54 236.95 83.69 234.71 Q 77.32 230.58 69.41 227.73 Q 61.74 229.70 56.58 231.39 Z" fill="#27502f" stroke="#0f2815" stroke-width="0.60" stroke-opacity="0.85" stroke-linejoin="round"/>
<path d="M 433.20 324.62 Q 437.61 328.52 444.65 332.30 Q 453.38 331.94 460.95 330.19 Q 454.68 325.45 446.74 321.85 Q 438.67 323.25 433.20 324.62 Z" fill="#27502f" stroke="#0f2815" stroke-width="0.60" stroke-opacity="0.85" stroke-linejoin="round"/>
<path d="M 50.13 271.61 Q 55.93 271.92 63.68 270.46 Q 70.53 265.30 75.31 259.12 Q 67.41 259.01 58.93 260.89 Q 53.58 267.18 50.13 271.61 Z" fill="#27502f" stroke="#0f2815" stroke-width="0.60" stroke-opacity="0.85" stroke-linejoin="round"/>
<path d="M 360.89 393.49 Q 362.49 387.97 362.36 380.36 Q 358.97 372.79 353.78 367.11 Q 352.44 374.55 352.92 382.91 Q 357.01 389.44 360.89 393.49 Z" fill="#27502f" stroke="#0f2815" stroke-width="0.60" stroke-opacity="0.85" stroke-linejoin="round"/>
<path d="M 61.56 309.32 Q 66.97 307.42 74.22 303.74 Q 78.78 296.24 81.42 288.88 Q 73.73 291.33 66.43 296.16 Q 63.01 303.57 61.56 309.32 Z" fill="#27502f" stroke="#0f2815" stroke-width="0.60" stroke-opacity="0.85" stroke-linejoin="round"/>
<path d="M 340.84 411.43 Q 343.19 416.27 347.15 423.01 Q 354.48 426.88 361.87 428.56 Q 358.76 421.64 353.54 415.16 Q 346.03 412.79 340.84 411.43 Z" fill="#27502f" stroke="#0f2815" stroke-width="0.60" stroke-opacity="0.85" stroke-linejoin="round"/>
<path d="M 288.03 438.88 Q 289.36 433.77 291.04 426.15 Q 288.08 418.53 283.48 412.54 Q 281.02 419.75 281.18 427.85 Q 284.35 434.63 288.03 438.88 Z" fill="#27502f" stroke="#0f2815" stroke-width="0.60" stroke-opacity="0.85" stroke-linejoin="round"/>
<path d="M 452.92 272.16 Q 458.39 273.31 466.51 274.74 Q 474.33 271.16 480.31 265.81 Q 472.71 264.14 463.96 263.75 Q 457.30 268.61 452.92 272.16 Z" fill="#27502f" stroke="#0f2815" stroke-width="0.60" stroke-opacity="0.85" stroke-linejoin="round"/>
<path d="M 438.70 222.96 Q 434.46 221.90 428.10 220.30 Q 421.83 223.25 416.78 226.69 Q 422.76 228.67 429.49 228.47 Q 435.10 225.62 438.70 222.96 Z" fill="#27502f" stroke="#0f2815" stroke-width="0.60" stroke-opacity="0.85" stroke-linejoin="round"/>
<path d="M 104.22 364.64 Q 108.71 361.23 114.09 355.48 Q 115.91 347.16 115.96 339.53 Q 109.64 344.23 104.54 351.02 Q 103.68 358.88 104.22 364.64 Z" fill="#2d5a3d" stroke="#0f2815" stroke-width="0.60" stroke-opacity="0.85" stroke-linejoin="round"/>
<path d="M 45.96 261.15 Q 42.31 256.59 36.21 251.42 Q 27.53 250.70 19.85 251.28 Q 25.24 256.76 32.39 261.53 Q 40.37 261.74 45.96 261.15 Z" fill="#2d5a3d" stroke="#0f2815" stroke-width="0.60" stroke-opacity="0.85" stroke-linejoin="round"/>
<path d="M 210.63 441.42 Q 205.13 442.66 198.32 446.00 Q 193.79 452.84 191.41 460.00 Q 198.34 457.55 205.40 453.32 Q 208.68 446.33 210.63 441.42 Z" fill="#2d5a3d" stroke="#0f2815" stroke-width="0.60" stroke-opacity="0.85" stroke-linejoin="round"/>
<path d="M 379.38 379.18 Q 380.49 373.63 380.70 365.78 Q 376.52 358.44 371.09 352.94 Q 369.63 360.61 370.79 368.91 Q 375.25 375.29 379.38 379.18 Z" fill="#2d5a3d" stroke="#0f2815" stroke-width="0.60" stroke-opacity="0.85" stroke-linejoin="round"/>
<path d="M 69.73 322.10 Q 75.15 319.75 81.75 315.09 Q 85.14 307.06 86.36 299.20 Q 79.31 302.83 72.68 308.51 Q 70.64 316.47 69.73 322.10 Z" fill="#2d5a3d" stroke="#0f2815" stroke-width="0.60" stroke-opacity="0.85" stroke-linejoin="round"/>
<path d="M 426.40 207.58 Q 422.05 207.67 415.76 208.32 Q 410.37 212.26 406.78 217.33 Q 412.78 217.09 419.28 215.40 Q 423.67 210.94 426.40 207.58 Z" fill="#2d5a3d" stroke="#0f2815" stroke-width="0.60" stroke-opacity="0.85" stroke-linejoin="round"/>
<path d="M 315.29 423.61 Q 316.98 418.30 318.07 410.64 Q 314.30 403.18 309.77 397.25 Q 307.52 404.60 307.68 412.82 Q 311.51 419.45 315.29 423.61 Z" fill="#2d5a3d" stroke="#0f2815" stroke-width="0.60" stroke-opacity="0.85" stroke-linejoin="round"/>
<path d="M 428.88 204.96 Q 432.47 202.12 436.53 197.35 Q 437.54 190.69 436.80 184.53 Q 432.37 188.68 428.56 194.26 Q 428.46 200.56 428.88 204.96 Z" fill="#2d5a3d" stroke="#0f2815" stroke-width="0.60" stroke-opacity="0.85" stroke-linejoin="round"/>
<path d="M 438.11 308.65 Q 436.40 303.12 432.64 296.00 Q 425.46 291.08 417.99 288.46 Q 420.31 296.21 425.39 303.22 Q 432.39 307.11 438.11 308.65 Z" fill="#2d5a3d" stroke="#0f2815" stroke-width="0.60" stroke-opacity="0.85" stroke-linejoin="round"/>
<path d="M 160.65 408.24 Q 164.01 404.00 168.31 397.48 Q 168.39 389.14 166.73 381.81 Q 162.31 387.74 158.69 395.26 Q 158.93 402.83 160.65 408.24 Z" fill="#2d5a3d" stroke="#0f2815" stroke-width="0.60" stroke-opacity="0.85" stroke-linejoin="round"/>
<path d="M 381.69 381.94 Q 384.68 386.49 389.51 392.78 Q 397.24 395.98 405.00 396.56 Q 400.80 390.31 395.16 383.76 Q 387.24 382.42 381.69 381.94 Z" fill="#2d5a3d" stroke="#0f2815" stroke-width="0.60" stroke-opacity="0.85" stroke-linejoin="round"/>
<path d="M 51.02 250.15 Q 56.35 251.70 64.18 253.01 Q 72.08 249.96 78.33 245.41 Q 70.98 243.58 62.46 243.12 Q 55.47 246.60 51.02 250.15 Z" fill="#2d5a3d" stroke="#0f2815" stroke-width="0.60" stroke-opacity="0.85" stroke-linejoin="round"/>
<path d="M 449.99 239.42 Q 455.56 238.63 462.90 236.07 Q 468.61 229.90 472.12 223.08 Q 464.60 224.47 456.83 227.84 Q 452.22 234.10 449.99 239.42 Z" fill="#2d5a3d" stroke="#0f2815" stroke-width="0.60" stroke-opacity="0.85" stroke-linejoin="round"/>
<path d="M 47.47 249.59 Q 44.22 245.00 38.63 239.53 Q 30.57 237.01 22.85 236.85 Q 27.44 243.05 33.88 248.70 Q 41.84 249.60 47.47 249.59 Z" fill="#2d5a3d" stroke="#0f2815" stroke-width="0.60" stroke-opacity="0.85" stroke-linejoin="round"/>
<path d="M 449.35 271.76 Q 446.09 266.93 440.20 261.70 Q 431.97 259.34 424.14 259.33 Q 428.97 265.42 435.66 270.92 Q 443.73 271.70 449.35 271.76 Z" fill="#2d5a3d" stroke="#0f2815" stroke-width="0.60" stroke-opacity="0.85" stroke-linejoin="round"/>
<path d="M 52.51 297.78 Q 47.32 295.22 39.56 292.32 Q 31.06 294.76 24.02 298.42 Q 31.22 301.50 39.81 303.31 Q 47.44 300.26 52.51 297.78 Z" fill="#2d5a3d" stroke="#0f2815" stroke-width="0.60" stroke-opacity="0.85" stroke-linejoin="round"/>
<path d="M 50.16 239.39 Q 47.67 234.40 43.44 227.58 Q 35.68 224.22 27.91 223.21 Q 31.56 229.90 37.03 236.40 Q 44.49 238.78 50.16 239.39 Z" fill="#2d5a3d" stroke="#0f2815" stroke-width="0.60" stroke-opacity="0.85" stroke-linejoin="round"/>
<path d="M 450.40 260.66 Q 446.54 256.57 440.45 251.23 Q 431.88 250.31 424.16 251.15 Q 429.55 256.76 436.70 261.60 Q 444.80 261.35 450.40 260.66 Z" fill="#2d5a3d" stroke="#0f2815" stroke-width="0.60" stroke-opacity="0.85" stroke-linejoin="round"/>
<path d="M 435.61 212.47 Q 439.14 209.87 444.34 205.92 Q 446.24 199.41 446.21 193.10 Q 441.29 196.70 436.99 201.89 Q 435.53 207.89 435.61 212.47 Z" fill="#2d5a3d" stroke="#0f2815" stroke-width="0.60" stroke-opacity="0.85" stroke-linejoin="round"/>
<path d="M 446.59 297.38 Q 451.59 300.64 459.17 303.63 Q 467.80 302.02 475.07 298.54 Q 468.09 294.89 459.61 292.88 Q 451.82 295.22 446.59 297.38 Z" fill="#2d5a3d" stroke="#0f2815" stroke-width="0.60" stroke-opacity="0.85" stroke-linejoin="round"/>
<path d="M 49.56 261.23 Q 55.17 262.05 63.16 262.09 Q 70.44 257.52 75.91 252.02 Q 68.12 250.90 59.59 251.88 Q 53.49 257.26 49.56 261.23 Z" fill="#2d5a3d" stroke="#0f2815" stroke-width="0.60" stroke-opacity="0.85" stroke-linejoin="round"/>
<path d="M 63.99 212.37 Q 63.94 207.88 63.26 201.46 Q 58.33 196.60 53.45 192.97 Q 53.73 199.10 55.73 205.55 Q 60.01 210.01 63.99 212.37 Z" fill="#3d6b4d" stroke="#0f2815" stroke-width="0.60" stroke-opacity="0.85" stroke-linejoin="round"/>
<path d="M 447.39 283.84 Q 444.42 279.07 439.58 272.53 Q 431.42 269.49 423.75 268.27 Q 427.60 275.28 433.85 281.23 Q 441.65 283.28 447.39 283.84 Z" fill="#3d6b4d" stroke="#0f2815" stroke-width="0.60" stroke-opacity="0.85" stroke-linejoin="round"/>
<path d="M 363.03 396.39 Q 365.79 401.07 370.31 407.52 Q 378.04 410.74 385.59 411.80 Q 381.86 405.15 375.96 399.26 Q 368.45 397.17 363.03 396.39 Z" fill="#3d6b4d" stroke="#0f2815" stroke-width="0.60" stroke-opacity="0.85" stroke-linejoin="round"/>
<path d="M 424.09 338.43 Q 428.24 342.19 434.69 347.09 Q 443.26 347.88 450.99 346.57 Q 445.28 341.17 437.73 337.02 Q 429.73 337.27 424.09 338.43 Z" fill="#3d6b4d" stroke="#0f2815" stroke-width="0.60" stroke-opacity="0.85" stroke-linejoin="round"/>
<path d="M 73.53 207.66 Q 76.23 211.25 80.71 215.71 Q 87.34 217.00 93.49 216.71 Q 89.64 211.93 84.35 207.68 Q 77.91 207.56 73.53 207.66 Z" fill="#3d6b4d" stroke="#0f2815" stroke-width="0.60" stroke-opacity="0.85" stroke-linejoin="round"/>
<path d="M 88.21 352.26 Q 82.52 351.75 74.68 352.61 Q 67.51 357.12 62.59 363.33 Q 70.44 363.89 78.76 362.04 Q 84.56 356.47 88.21 352.26 Z" fill="#3d6b4d" stroke="#0f2815" stroke-width="0.60" stroke-opacity="0.85" stroke-linejoin="round"/>
<path d="M 71.06 205.04 Q 71.66 200.58 71.23 194.41 Q 67.58 188.77 63.21 184.58 Q 62.52 190.71 63.69 197.30 Q 67.36 202.23 71.06 205.04 Z" fill="#3d6b4d" stroke="#0f2815" stroke-width="0.60" stroke-opacity="0.85" stroke-linejoin="round"/>
<path d="M 412.63 352.84 Q 416.31 357.15 422.39 362.24 Q 430.73 363.94 438.52 363.29 Q 433.36 357.41 426.17 352.85 Q 418.35 352.11 412.63 352.84 Z" fill="#3d6b4d" stroke="#0f2815" stroke-width="0.60" stroke-opacity="0.85" stroke-linejoin="round"/>
<path d="M 55.89 296.54 Q 61.59 295.29 68.94 292.03 Q 74.51 285.39 77.50 277.95 Q 69.95 280.10 62.25 284.26 Q 57.77 290.86 55.89 296.54 Z" fill="#3d6b4d" stroke="#0f2815" stroke-width="0.60" stroke-opacity="0.85" stroke-linejoin="round"/>
<path d="M 317.12 426.71 Q 318.93 432.01 322.83 438.60 Q 330.31 442.30 337.42 444.40 Q 334.36 437.66 329.51 430.93 Q 322.23 428.22 317.12 426.71 Z" fill="#3d6b4d" stroke="#0f2815" stroke-width="0.60" stroke-opacity="0.85" stroke-linejoin="round"/>
<path d="M 452.29 249.38 Q 457.92 249.39 465.85 248.41 Q 472.41 243.02 476.87 236.57 Q 469.07 236.61 460.90 238.92 Q 455.32 244.41 452.29 249.38 Z" fill="#3d6b4d" stroke="#0f2815" stroke-width="0.60" stroke-opacity="0.85" stroke-linejoin="round"/>
<path d="M 79.26 335.44 Q 84.32 332.77 90.95 328.10 Q 94.29 320.18 95.06 312.20 Q 88.15 316.00 81.63 321.76 Q 79.61 329.56 79.26 335.44 Z" fill="#3d6b4d" stroke="#0f2815" stroke-width="0.60" stroke-opacity="0.85" stroke-linejoin="round"/>
<path d="M 184.84 423.79 Q 188.35 419.49 192.14 412.78 Q 191.39 404.44 189.56 397.28 Q 184.75 403.26 182.28 411.02 Q 183.20 418.57 184.84 423.79 Z" fill="#3d6b4d" stroke="#0f2815" stroke-width="0.60" stroke-opacity="0.85" stroke-linejoin="round"/>
<path d="M 53.61 240.43 Q 58.66 243.18 66.15 245.00 Q 74.35 243.09 81.11 239.54 Q 74.12 236.19 65.82 234.89 Q 58.48 237.71 53.61 240.43 Z" fill="#3d6b4d" stroke="#0f2815" stroke-width="0.60" stroke-opacity="0.85" stroke-linejoin="round"/>
<path d="M 430.15 322.71 Q 429.16 316.95 426.34 309.41 Q 419.42 304.08 412.35 300.70 Q 414.24 308.27 417.80 316.31 Q 424.92 320.39 430.15 322.71 Z" fill="#3d6b4d" stroke="#0f2815" stroke-width="0.60" stroke-opacity="0.85" stroke-linejoin="round"/>
<path d="M 338.87 408.42 Q 340.66 403.09 341.73 395.42 Q 338.58 387.75 333.66 381.80 Q 331.54 389.12 331.20 397.48 Q 335.36 404.13 338.87 408.42 Z" fill="#447a54" stroke="#0f2815" stroke-width="0.60" stroke-opacity="0.85" stroke-linejoin="round"/>
<path d="M 442.90 230.68 Q 437.77 228.63 430.21 227.03 Q 422.18 229.20 415.70 233.21 Q 422.82 236.09 431.16 237.19 Q 438.21 233.40 442.90 230.68 Z" fill="#447a54" stroke="#0f2815" stroke-width="0.60" stroke-opacity="0.85" stroke-linejoin="round"/>
<path d="M 58.34 310.92 Q 52.95 309.16 44.98 307.31 Q 36.67 309.79 30.05 314.36 Q 37.50 316.62 46.29 318.11 Q 53.54 313.98 58.34 310.92 Z" fill="#447a54" stroke="#0f2815" stroke-width="0.60" stroke-opacity="0.85" stroke-linejoin="round"/>
<path d="M 57.89 220.33 Q 57.07 215.82 54.64 210.04 Q 49.58 205.57 43.75 203.16 Q 45.47 208.95 48.34 215.23 Q 53.93 218.40 57.89 220.33 Z" fill="#447a54" stroke="#0f2815" stroke-width="0.60" stroke-opacity="0.85" stroke-linejoin="round"/>
<path d="M 118.41 381.82 Q 112.91 382.04 105.20 383.35 Q 98.45 388.24 94.09 394.70 Q 101.93 394.80 110.02 392.45 Q 115.38 386.70 118.41 381.82 Z" fill="#447a54" stroke="#0f2815" stroke-width="0.60" stroke-opacity="0.85" stroke-linejoin="round"/>
<path d="M 46.55 272.01 Q 42.33 267.93 35.48 264.00 Q 26.90 263.58 19.24 265.37 Q 25.24 270.45 32.94 274.44 Q 40.97 273.54 46.55 272.01 Z" fill="#447a54" stroke="#0f2815" stroke-width="0.60" stroke-opacity="0.85" stroke-linejoin="round"/>
<path d="M 90.88 349.85 Q 95.65 346.55 101.13 340.82 Q 103.03 332.44 102.89 324.65 Q 97.10 329.62 91.61 336.28 Q 90.37 344.03 90.88 349.85 Z" fill="#447a54" stroke="#0f2815" stroke-width="0.60" stroke-opacity="0.85" stroke-linejoin="round"/>
<path d="M 52.57 284.34 Q 58.41 284.09 66.37 282.44 Q 72.47 276.15 76.65 269.46 Q 68.66 269.99 60.69 273.25 Q 55.45 279.30 52.57 284.34 Z" fill="#447a54" stroke="#0f2815" stroke-width="0.60" stroke-opacity="0.85" stroke-linejoin="round"/>
<path d="M 66.68 324.02 Q 61.09 322.24 53.05 321.16 Q 45.16 324.90 38.99 329.91 Q 46.70 332.14 55.39 332.19 Q 62.23 327.61 66.68 324.02 Z" fill="#447a54" stroke="#0f2815" stroke-width="0.60" stroke-opacity="0.85" stroke-linejoin="round"/>
<path d="M 137.22 396.31 Q 131.62 396.85 124.05 398.84 Q 118.43 405.14 114.70 411.78 Q 122.05 410.41 129.89 407.36 Q 134.84 401.53 137.22 396.31 Z" fill="#447a54" stroke="#0f2815" stroke-width="0.60" stroke-opacity="0.85" stroke-linejoin="round"/>
<path d="M 183.01 426.89 Q 177.40 427.59 170.19 430.18 Q 164.90 436.53 161.84 443.52 Q 169.42 442.28 176.52 438.24 Q 180.61 431.68 183.01 426.89 Z" fill="#447a54" stroke="#0f2815" stroke-width="0.60" stroke-opacity="0.85" stroke-linejoin="round"/>
<path d="M 60.94 222.25 Q 64.49 224.80 69.79 228.73 Q 76.75 228.08 82.69 226.87 Q 77.79 223.18 71.63 220.06 Q 65.37 220.63 60.94 222.25 Z" fill="#447a54" stroke="#0f2815" stroke-width="0.60" stroke-opacity="0.85" stroke-linejoin="round"/>
<path d="M 432.83 214.76 Q 428.27 213.99 422.08 214.54 Q 416.43 218.27 412.27 222.80 Q 418.42 223.36 425.07 222.18 Q 429.79 217.89 432.83 214.76 Z" fill="#447a54" stroke="#0f2815" stroke-width="0.60" stroke-opacity="0.85" stroke-linejoin="round"/>
<path d="M 53.30 229.90 Q 51.44 224.82 48.28 217.58 Q 41.42 212.84 34.09 210.48 Q 36.31 217.89 40.76 225.02 Q 48.22 228.01 53.30 229.90 Z" fill="#447a54" stroke="#0f2815" stroke-width="0.60" stroke-opacity="0.85" stroke-linejoin="round"/>
<path d="M 448.74 249.94 Q 444.28 246.23 437.31 242.48 Q 428.71 243.57 421.38 245.52 Q 427.70 249.84 435.63 252.87 Q 443.33 252.10 448.74 249.94 Z" fill="#447a54" stroke="#0f2815" stroke-width="0.60" stroke-opacity="0.85" stroke-linejoin="round"/>
<path d="M 446.18 229.19 Q 451.71 227.91 458.96 224.87 Q 463.27 217.47 466.13 210.53 Q 458.64 212.52 451.60 216.99 Q 447.77 223.69 446.18 229.19 Z" fill="#447a54" stroke="#0f2815" stroke-width="0.60" stroke-opacity="0.85" stroke-linejoin="round"/>
<path d="M 289.71 442.06 Q 291.70 447.05 295.44 453.71 Q 302.33 458.02 309.64 459.87 Q 307.10 452.68 302.15 446.20 Q 295.21 443.13 289.71 442.06 Z" fill="#447a54" stroke="#0f2815" stroke-width="0.60" stroke-opacity="0.85" stroke-linejoin="round"/>
<path d="M 441.75 221.04 Q 445.95 219.31 451.63 216.20 Q 454.42 209.86 455.87 203.86 Q 450.37 206.53 444.69 210.50 Q 442.42 216.41 441.75 221.04 Z" fill="#447a54" stroke="#0f2815" stroke-width="0.60" stroke-opacity="0.85" stroke-linejoin="round"/>
<path d="M 421.23 336.25 Q 420.83 330.48 418.89 322.70 Q 412.79 316.60 405.96 312.65 Q 406.75 320.51 409.81 328.57 Q 416.00 333.61 421.23 336.25 Z" fill="#447a54" stroke="#0f2815" stroke-width="0.60" stroke-opacity="0.85" stroke-linejoin="round"/>
<path d="M 158.67 411.25 Q 153.00 411.68 145.83 414.22 Q 140.26 420.44 136.52 426.90 Q 143.82 425.47 151.57 422.35 Q 156.40 416.48 158.67 411.25 Z" fill="#447a54" stroke="#0f2815" stroke-width="0.60" stroke-opacity="0.85" stroke-linejoin="round"/>
<path d="M 409.96 350.43 Q 409.99 344.59 408.20 336.90 Q 402.16 330.74 395.80 326.38 Q 396.52 334.05 398.78 342.44 Q 404.93 347.56 409.96 350.43 Z" fill="#447a54" stroke="#0f2815" stroke-width="0.60" stroke-opacity="0.85" stroke-linejoin="round"/>
<path d="M 120.71 379.06 Q 124.77 375.35 130.20 369.53 Q 131.52 361.16 131.00 353.54 Q 125.39 358.69 120.79 365.74 Q 119.81 373.36 120.71 379.06 Z" fill="#447a54" stroke="#0f2815" stroke-width="0.60" stroke-opacity="0.85" stroke-linejoin="round"/>
<path d="M 101.73 367.24 Q 96.07 367.02 88.31 368.20 Q 81.42 373.04 76.87 379.48 Q 84.46 379.22 92.96 377.65 Q 98.26 371.47 101.73 367.24 Z" fill="#447a54" stroke="#0f2815" stroke-width="0.60" stroke-opacity="0.85" stroke-linejoin="round"/>
<path d="M 441.34 310.25 Q 446.24 313.60 453.72 316.93 Q 462.41 315.25 469.77 312.26 Q 462.90 308.40 454.53 305.51 Q 446.67 307.57 441.34 310.25 Z" fill="#447a54" stroke="#0f2815" stroke-width="0.60" stroke-opacity="0.85" stroke-linejoin="round"/>
<path d="M 446.54 240.46 Q 441.76 237.80 434.57 234.17 Q 426.21 235.42 419.09 238.52 Q 425.70 242.58 433.84 244.55 Q 441.43 242.57 446.54 240.46 Z" fill="#447a54" stroke="#0f2815" stroke-width="0.60" stroke-opacity="0.85" stroke-linejoin="round"/>
<path d="M 212.31 438.24 L 215.17 411.67" fill="none" stroke="#0f2815" stroke-width="0.4" opacity="0.5"/>
<path d="M 450.89 284.67 L 478.85 280.29" fill="none" stroke="#0f2815" stroke-width="0.4" opacity="0.5"/>
<path d="M 443.21 296.14 L 420.89 278.42" fill="none" stroke="#0f2815" stroke-width="0.4" opacity="0.5"/>
<path d="M 139.36 393.42 L 147.95 367.48" fill="none" stroke="#0f2815" stroke-width="0.4" opacity="0.5"/>
<path d="M 395.33 364.54 L 383.54 339.46" fill="none" stroke="#0f2815" stroke-width="0.4" opacity="0.5"/>
<path d="M 454.00 260.58 L 479.70 249.70" fill="none" stroke="#0f2815" stroke-width="0.4" opacity="0.5"/>
<path d="M 66.77 214.66 L 87.52 222.19" fill="none" stroke="#0f2815" stroke-width="0.4" opacity="0.5"/>
<path d="M 49.07 285.17 L 20.91 282.30" fill="none" stroke="#0f2815" stroke-width="0.4" opacity="0.5"/>
<path d="M 397.82 367.14 L 422.75 379.26" fill="none" stroke="#0f2815" stroke-width="0.4" opacity="0.5"/>
<path d="M 76.39 337.63 L 49.58 346.06" fill="none" stroke="#0f2815" stroke-width="0.4" opacity="0.5"/>
<path d="M 56.58 231.39 L 83.69 234.71" fill="none" stroke="#0f2815" stroke-width="0.4" opacity="0.5"/>
<path d="M 433.20 324.62 L 460.95 330.19" fill="none" stroke="#0f2815" stroke-width="0.4" opacity="0.5"/>
<path d="M 50.13 271.61 L 75.31 259.12" fill="none" stroke="#0f2815" stroke-width="0.4" opacity="0.5"/>
<path d="M 360.89 393.49 L 353.78 367.11" fill="none" stroke="#0f2815" stroke-width="0.4" opacity="0.5"/>
<path d="M 61.56 309.32 L 81.42 288.88" fill="none" stroke="#0f2815" stroke-width="0.4" opacity="0.5"/>
<path d="M 340.84 411.43 L 361.87 428.56" fill="none" stroke="#0f2815" stroke-width="0.4" opacity="0.5"/>
<path d="M 288.03 438.88 L 283.48 412.54" fill="none" stroke="#0f2815" stroke-width="0.4" opacity="0.5"/>
<path d="M 452.92 272.16 L 480.31 265.81" fill="none" stroke="#0f2815" stroke-width="0.4" opacity="0.5"/>
<path d="M 438.70 222.96 L 416.78 226.69" fill="none" stroke="#0f2815" stroke-width="0.4" opacity="0.5"/>
<path d="M 104.22 364.64 L 115.96 339.53" fill="none" stroke="#0f2815" stroke-width="0.4" opacity="0.5"/>
<path d="M 45.96 261.15 L 19.85 251.28" fill="none" stroke="#0f2815" stroke-width="0.4" opacity="0.5"/>
<path d="M 210.63 441.42 L 191.41 460.00" fill="none" stroke="#0f2815" stroke-width="0.4" opacity="0.5"/>
<path d="M 379.38 379.18 L 371.09 352.94" fill="none" stroke="#0f2815" stroke-width="0.4" opacity="0.5"/>
<path d="M 69.73 322.10 L 86.36 299.20" fill="none" stroke="#0f2815" stroke-width="0.4" opacity="0.5"/>
<path d="M 426.40 207.58 L 406.78 217.33" fill="none" stroke="#0f2815" stroke-width="0.4" opacity="0.5"/>
<path d="M 315.29 423.61 L 309.77 397.25" fill="none" stroke="#0f2815" stroke-width="0.4" opacity="0.5"/>
<path d="M 428.88 204.96 L 436.80 184.53" fill="none" stroke="#0f2815" stroke-width="0.4" opacity="0.5"/>
<path d="M 438.11 308.65 L 417.99 288.46" fill="none" stroke="#0f2815" stroke-width="0.4" opacity="0.5"/>
<path d="M 160.65 408.24 L 166.73 381.81" fill="none" stroke="#0f2815" stroke-width="0.4" opacity="0.5"/>
<path d="M 381.69 381.94 L 405.00 396.56" fill="none" stroke="#0f2815" stroke-width="0.4" opacity="0.5"/>
<path d="M 51.02 250.15 L 78.33 245.41" fill="none" stroke="#0f2815" stroke-width="0.4" opacity="0.5"/>
<path d="M 449.99 239.42 L 472.12 223.08" fill="none" stroke="#0f2815" stroke-width="0.4" opacity="0.5"/>
<path d="M 47.47 249.59 L 22.85 236.85" fill="none" stroke="#0f2815" stroke-width="0.4" opacity="0.5"/>
<path d="M 449.35 271.76 L 424.14 259.33" fill="none" stroke="#0f2815" stroke-width="0.4" opacity="0.5"/>
<path d="M 52.51 297.78 L 24.02 298.42" fill="none" stroke="#0f2815" stroke-width="0.4" opacity="0.5"/>
<path d="M 50.16 239.39 L 27.91 223.21" fill="none" stroke="#0f2815" stroke-width="0.4" opacity="0.5"/>
<path d="M 450.40 260.66 L 424.16 251.15" fill="none" stroke="#0f2815" stroke-width="0.4" opacity="0.5"/>
<path d="M 435.61 212.47 L 446.21 193.10" fill="none" stroke="#0f2815" stroke-width="0.4" opacity="0.5"/>
<path d="M 446.59 297.38 L 475.07 298.54" fill="none" stroke="#0f2815" stroke-width="0.4" opacity="0.5"/>
<path d="M 49.56 261.23 L 75.91 252.02" fill="none" stroke="#0f2815" stroke-width="0.4" opacity="0.5"/>
<path d="M 63.99 212.37 L 53.45 192.97" fill="none" stroke="#0f2815" stroke-width="0.4" opacity="0.5"/>
<path d="M 447.39 283.84 L 423.75 268.27" fill="none" stroke="#0f2815" stroke-width="0.4" opacity="0.5"/>
<path d="M 363.03 396.39 L 385.59 411.80" fill="none" stroke="#0f2815" stroke-width="0.4" opacity="0.5"/>
<path d="M 424.09 338.43 L 450.99 346.57" fill="none" stroke="#0f2815" stroke-width="0.4" opacity="0.5"/>
<path d="M 73.53 207.66 L 93.49 216.71" fill="none" stroke="#0f2815" stroke-width="0.4" opacity="0.5"/>
<path d="M 88.21 352.26 L 62.59 363.33" fill="none" stroke="#0f2815" stroke-width="0.4" opacity="0.5"/>
<path d="M 71.06 205.04 L 63.21 184.58" fill="none" stroke="#0f2815" stroke-width="0.4" opacity="0.5"/>
<path d="M 412.63 352.84 L 438.52 363.29" fill="none" stroke="#0f2815" stroke-width="0.4" opacity="0.5"/>
<path d="M 55.89 296.54 L 77.50 277.95" fill="none" stroke="#0f2815" stroke-width="0.4" opacity="0.5"/>
<path d="M 317.12 426.71 L 337.42 444.40" fill="none" stroke="#0f2815" stroke-width="0.4" opacity="0.5"/>
<path d="M 452.29 249.38 L 476.87 236.57" fill="none" stroke="#0f2815" stroke-width="0.4" opacity="0.5"/>
<path d="M 79.26 335.44 L 95.06 312.20" fill="none" stroke="#0f2815" stroke-width="0.4" opacity="0.5"/>
<path d="M 184.84 423.79 L 189.56 397.28" fill="none" stroke="#0f2815" stroke-width="0.4" opacity="0.5"/>
<path d="M 53.61 240.43 L 81.11 239.54" fill="none" stroke="#0f2815" stroke-width="0.4" opacity="0.5"/>
<path d="M 430.15 322.71 L 412.35 300.70" fill="none" stroke="#0f2815" stroke-width="0.4" opacity="0.5"/>
<path d="M 338.87 408.42 L 333.66 381.80" fill="none" stroke="#0f2815" stroke-width="0.4" opacity="0.5"/>
<path d="M 442.90 230.68 L 415.70 233.21" fill="none" stroke="#0f2815" stroke-width="0.4" opacity="0.5"/>
<path d="M 58.34 310.92 L 30.05 314.36" fill="none" stroke="#0f2815" stroke-width="0.4" opacity="0.5"/>
<path d="M 57.89 220.33 L 43.75 203.16" fill="none" stroke="#0f2815" stroke-width="0.4" opacity="0.5"/>
<path d="M 118.41 381.82 L 94.09 394.70" fill="none" stroke="#0f2815" stroke-width="0.4" opacity="0.5"/>
<path d="M 46.55 272.01 L 19.24 265.37" fill="none" stroke="#0f2815" stroke-width="0.4" opacity="0.5"/>
<path d="M 90.88 349.85 L 102.89 324.65" fill="none" stroke="#0f2815" stroke-width="0.4" opacity="0.5"/>
<path d="M 52.57 284.34 L 76.65 269.46" fill="none" stroke="#0f2815" stroke-width="0.4" opacity="0.5"/>
<path d="M 66.68 324.02 L 38.99 329.91" fill="none" stroke="#0f2815" stroke-width="0.4" opacity="0.5"/>
<path d="M 137.22 396.31 L 114.70 411.78" fill="none" stroke="#0f2815" stroke-width="0.4" opacity="0.5"/>
<path d="M 183.01 426.89 L 161.84 443.52" fill="none" stroke="#0f2815" stroke-width="0.4" opacity="0.5"/>
<path d="M 60.94 222.25 L 82.69 226.87" fill="none" stroke="#0f2815" stroke-width="0.4" opacity="0.5"/>
<path d="M 432.83 214.76 L 412.27 222.80" fill="none" stroke="#0f2815" stroke-width="0.4" opacity="0.5"/>
<path d="M 53.30 229.90 L 34.09 210.48" fill="none" stroke="#0f2815" stroke-width="0.4" opacity="0.5"/>
<path d="M 448.74 249.94 L 421.38 245.52" fill="none" stroke="#0f2815" stroke-width="0.4" opacity="0.5"/>
<path d="M 446.18 229.19 L 466.13 210.53" fill="none" stroke="#0f2815" stroke-width="0.4" opacity="0.5"/>
<path d="M 289.71 442.06 L 309.64 459.87" fill="none" stroke="#0f2815" stroke-width="0.4" opacity="0.5"/>
<path d="M 441.75 221.04 L 455.87 203.86" fill="none" stroke="#0f2815" stroke-width="0.4" opacity="0.5"/>
<path d="M 421.23 336.25 L 405.96 312.65" fill="none" stroke="#0f2815" stroke-width="0.4" opacity="0.5"/>
<path d="M 158.67 411.25 L 136.52 426.90" fill="none" stroke="#0f2815" stroke-width="0.4" opacity="0.5"/>
<path d="M 409.96 350.43 L 395.80 326.38" fill="none" stroke="#0f2815" stroke-width="0.4" opacity="0.5"/>
<path d="M 120.71 379.06 L 131.00 353.54" fill="none" stroke="#0f2815" stroke-width="0.4" opacity="0.5"/>
<path d="M 101.73 367.24 L 76.87 379.48" fill="none" stroke="#0f2815" stroke-width="0.4" opacity="0.5"/>
<path d="M 441.34 310.25 L 469.77 312.26" fill="none" stroke="#0f2815" stroke-width="0.4" opacity="0.5"/>
<path d="M 446.54 240.46 L 419.09 238.52" fill="none" stroke="#0f2815" stroke-width="0.4" opacity="0.5"/>
<path d="M 250 458 Q 247 469 250 478 Q 253 469 250 458 Z" fill="#2d5a3d" stroke="#0f2815" stroke-width="0.7" stroke-linejoin="round"/>
<path d="M 250 460 Q 242 466 233 471 Q 241 463 250 460 Z" fill="#2d5a3d" stroke="#0f2815" stroke-width="0.7" stroke-linejoin="round"/>
<path d="M 250 460 Q 258 466 267 471 Q 259 463 250 460 Z" fill="#2d5a3d" stroke="#0f2815" stroke-width="0.7" stroke-linejoin="round"/>
<circle cx="250" cy="460" r="4" fill="#1f4027" stroke="#0f2815" stroke-width="0.6"/>
</svg>